<svg width="112" height="28" viewBox="0 0 112 28" fill="none" xmlns="http://www.w3.org/2000/svg">
<path d="M18.09 19.01C18.12 19.28 18.09 19.49 18.03 19.64C17.94 19.82 17.82 19.94 17.7 20.03C17.55 20.15 17.4 20.21 17.28 20.24C17.1 20.3 16.98 20.3 16.92 20.3C16.44 20.36 15.81 20.42 15.06 20.48C14.28 20.57 13.47 20.63 12.57 20.69L9.78 20.87C8.79 20.93 7.86 20.99 6.96 21.02C6.03 21.08 5.19 21.11 4.44 21.11C3.66 21.17 3 21.17 2.52 21.17C2.4 21.17 2.28 21.17 2.13 21.14C1.95 21.14 1.77 21.11 1.59 21.05C1.41 20.99 1.23 20.9 1.11 20.72C0.96 20.6 0.87 20.39 0.87 20.09C0.81 19.85 0.84 19.64 0.96 19.46C1.05 19.34 1.17 19.22 1.35 19.1C1.47 19.04 1.62 18.98 1.8 18.92C1.95 18.92 2.07 18.89 2.19 18.89C2.61 18.89 3.03 18.89 3.51 18.86C3.96 18.86 4.44 18.86 4.92 18.83L3.84 8.27C3.78 7.85 3.84 7.46 3.99 7.1C4.11 6.8 4.44 6.59 4.92 6.53C5.34 6.47 5.7 6.56 6 6.74C6.27 6.98 6.45 7.37 6.51 7.94L7.53 18.74C8.13 18.71 8.73 18.68 9.33 18.62C9.93 18.62 10.53 18.59 11.13 18.53L12.15 7.94C12.21 7.37 12.36 6.98 12.66 6.74C12.93 6.56 13.29 6.47 13.74 6.53C14.22 6.59 14.52 6.8 14.67 7.1C14.79 7.46 14.85 7.85 14.82 8.27L13.74 18.35L16.59 18.08C16.65 18.08 16.77 18.08 16.95 18.05C17.07 18.05 17.22 18.08 17.4 18.11C17.55 18.17 17.7 18.26 17.85 18.38C17.97 18.53 18.03 18.74 18.09 19.01ZM23.1 26.21C23.1 26.63 22.95 26.96 22.68 27.2C22.38 27.44 22.05 27.56 21.69 27.56C21.3 27.56 20.97 27.44 20.73 27.2C20.46 26.96 20.34 26.63 20.34 26.21V1.43C20.34 1.01 20.46 0.679999 20.73 0.409999C20.97 0.169999 21.3 0.0499986 21.69 0.0499986C22.05 0.0499986 22.38 0.169999 22.68 0.409999C22.95 0.679999 23.1 1.01 23.1 1.43V10.58H26.79C27.15 10.58 27.42 10.7 27.66 10.91C27.84 11.15 27.96 11.45 27.96 11.75C27.96 12.11 27.84 12.38 27.66 12.59C27.42 12.83 27.15 12.92 26.79 12.92H23.1V26.21ZM2.61 5.18C2.22 5.18 1.92 5.09 1.74 4.85C1.5 4.64 1.41 4.37 1.41 4.01C1.41 3.68 1.5 3.41 1.74 3.17C1.92 2.96 2.22 2.84 2.61 2.84H15.78C16.14 2.84 16.44 2.96 16.68 3.17C16.86 3.41 16.98 3.68 16.98 4.01C16.98 4.37 16.86 4.64 16.68 4.85C16.44 5.09 16.14 5.18 15.78 5.18H2.61ZM33.2529 22.4C33.2529 20.66 34.1229 19.28 35.8629 18.32C37.5729 17.39 39.9729 16.91 43.0629 16.91C46.1229 16.91 48.5529 17.39 50.2929 18.32C52.0329 19.28 52.9029 20.66 52.9029 22.4C52.9029 24.14 52.0329 25.49 50.2929 26.45C48.5529 27.38 46.1229 27.86 43.0629 27.86C39.9729 27.86 37.5729 27.38 35.8629 26.45C34.1229 25.49 33.2529 24.14 33.2529 22.4ZM32.7429 4.01C32.3529 4.01 32.0529 3.92 31.8729 3.68C31.6329 3.5 31.5429 3.23 31.5429 2.87C31.5429 2.54 31.6329 2.27 31.8729 2.03C32.0529 1.82 32.3529 1.7 32.7429 1.7H41.7129C42.6729 1.7 43.3629 1.91 43.8129 2.33C44.2329 2.75 44.3829 3.41 44.2629 4.31C44.0529 5.63 43.6329 6.86 43.0029 8C42.3429 9.2 41.5029 10.28 40.5129 11.24C39.4929 12.26 38.3229 13.13 37.0029 13.91C35.6529 14.72 34.2129 15.38 32.6829 15.92C32.5629 15.98 32.4429 16.01 32.2929 16.04C32.1129 16.1 31.9329 16.13 31.7529 16.1C31.5429 16.1 31.3629 16.07 31.1829 15.95C31.0029 15.86 30.8529 15.68 30.7329 15.41C30.6129 15.2 30.5829 14.99 30.6429 14.81C30.6729 14.66 30.7329 14.51 30.8529 14.36C30.9429 14.24 31.0629 14.15 31.2129 14.06C31.3329 14 31.4229 13.97 31.5129 13.91C32.9529 13.43 34.3029 12.77 35.5629 11.96C36.7929 11.18 37.9029 10.31 38.8629 9.32L32.3229 9.41C31.9329 9.41 31.6329 9.32 31.4529 9.08C31.2129 8.9 31.1229 8.63 31.1229 8.27C31.1229 7.94 31.2129 7.67 31.4529 7.43C31.6329 7.22 31.9329 7.1 32.3229 7.1H40.5429C40.8429 6.56 41.1129 5.96 41.3529 5.3C41.5929 4.46 41.2929 4.01 40.4529 4.01H32.7429ZM50.1429 22.4C50.1429 21.86 49.9629 21.35 49.6329 20.93C49.2729 20.54 48.7929 20.21 48.1929 19.94C47.5329 19.7 46.7829 19.49 45.9429 19.34C45.0429 19.22 44.0829 19.16 43.0629 19.16C41.9829 19.16 41.0229 19.22 40.1829 19.34C39.3129 19.49 38.5629 19.7 37.9629 19.94C37.3029 20.21 36.8229 20.54 36.5229 20.93C36.1629 21.35 36.0129 21.86 36.0129 22.4C36.0129 23 36.1629 23.45 36.5229 23.87C36.8229 24.26 37.3029 24.59 37.9629 24.86C38.5629 25.1 39.3129 25.31 40.1829 25.43C41.0229 25.55 41.9829 25.61 43.0629 25.61C44.0829 25.61 45.0429 25.55 45.9429 25.43C46.7829 25.31 47.5329 25.1 48.1929 24.86C48.7929 24.59 49.2729 24.26 49.6329 23.87C49.9629 23.45 50.1429 23 50.1429 22.4ZM52.8129 15.35C52.8129 15.77 52.6629 16.1 52.3929 16.34C52.0929 16.58 51.7629 16.7 51.4029 16.7C51.0129 16.7 50.6829 16.58 50.4429 16.34C50.1729 16.1 50.0529 15.77 50.0529 15.35V1.46C50.0529 1.04 50.1729 0.709999 50.4429 0.439999C50.6829 0.199998 51.0129 0.0499986 51.4029 0.0499986C51.7629 0.0499986 52.0929 0.199998 52.3929 0.439999C52.6629 0.709999 52.8129 1.04 52.8129 1.46V15.35ZM75.1158 19.01C75.1458 19.28 75.1158 19.49 75.0558 19.64C74.9658 19.82 74.8458 19.94 74.7258 20.03C74.5758 20.15 74.4258 20.21 74.3058 20.24C74.1258 20.3 74.0058 20.3 73.9458 20.3C73.4658 20.36 72.8358 20.42 72.0858 20.48C71.3058 20.57 70.4958 20.63 69.5958 20.69L66.8058 20.87C65.8158 20.93 64.8858 20.99 63.9858 21.02C63.0558 21.08 62.2158 21.11 61.4658 21.11C60.6858 21.17 60.0258 21.17 59.5458 21.17C59.4258 21.17 59.3058 21.17 59.1558 21.14C58.9758 21.14 58.7958 21.11 58.6158 21.05C58.4358 20.99 58.2558 20.9 58.1358 20.72C57.9858 20.6 57.8958 20.39 57.8958 20.09C57.8358 19.85 57.8658 19.64 57.9858 19.46C58.0758 19.34 58.1958 19.22 58.3758 19.1C58.4958 19.04 58.6458 18.98 58.8258 18.92C58.9758 18.92 59.0958 18.89 59.2158 18.89C59.6358 18.89 60.0558 18.89 60.5358 18.86C60.9858 18.86 61.4658 18.86 61.9458 18.83L60.8658 8.27C60.8058 7.85 60.8658 7.46 61.0158 7.1C61.1358 6.8 61.4658 6.59 61.9458 6.53C62.3658 6.47 62.7258 6.56 63.0258 6.74C63.2958 6.98 63.4758 7.37 63.5358 7.94L64.5558 18.74C65.1558 18.71 65.7558 18.68 66.3558 18.62C66.9558 18.62 67.5558 18.59 68.1558 18.53L69.1758 7.94C69.2358 7.37 69.3858 6.98 69.6858 6.74C69.9558 6.56 70.3158 6.47 70.7658 6.53C71.2458 6.59 71.5458 6.8 71.6958 7.1C71.8158 7.46 71.8758 7.85 71.8458 8.27L70.7658 18.35L73.6158 18.08C73.6758 18.08 73.7958 18.08 73.9758 18.05C74.0958 18.05 74.2458 18.08 74.4258 18.11C74.5758 18.17 74.7258 18.26 74.8758 18.38C74.9958 18.53 75.0558 18.74 75.1158 19.01ZM81.0258 26.21C81.0258 26.63 80.8758 26.96 80.6058 27.2C80.3058 27.44 79.9758 27.56 79.6158 27.56C79.2258 27.56 78.8958 27.44 78.6558 27.2C78.3858 26.96 78.2658 26.63 78.2658 26.21V1.43C78.2658 1.01 78.3858 0.679999 78.6558 0.409999C78.8958 0.169999 79.2258 0.0499986 79.6158 0.0499986C79.9758 0.0499986 80.3058 0.169999 80.6058 0.409999C80.8758 0.679999 81.0258 1.01 81.0258 1.43V26.21ZM59.6358 5.18C59.2458 5.18 58.9458 5.09 58.7658 4.85C58.5258 4.64 58.4358 4.37 58.4358 4.01C58.4358 3.68 58.5258 3.41 58.7658 3.17C58.9458 2.96 59.2458 2.84 59.6358 2.84H72.8058C73.1658 2.84 73.4658 2.96 73.7058 3.17C73.8858 3.41 74.0058 3.68 74.0058 4.01C74.0058 4.37 73.8858 4.64 73.7058 4.85C73.4658 5.09 73.1658 5.18 72.8058 5.18H59.6358ZM90.5187 19.22C90.1587 19.22 89.8587 19.13 89.6787 18.89C89.4387 18.71 89.3487 18.44 89.3487 18.08C89.3487 17.78 89.4387 17.51 89.6787 17.27C89.8587 17.09 90.1587 16.97 90.5187 16.97H105.399C106.359 16.97 107.049 17.21 107.499 17.66C107.919 18.14 108.129 18.77 108.129 19.61V20.69C108.129 21.53 107.919 22.19 107.499 22.64C107.049 23.09 106.359 23.33 105.399 23.33H92.8887C92.6787 23.33 92.4987 23.36 92.3487 23.45C92.1687 23.51 92.1087 23.72 92.1087 24.05V24.59C92.1087 24.89 92.1687 25.1 92.3487 25.19C92.4987 25.25 92.6787 25.31 92.8887 25.31H107.559C107.919 25.31 108.189 25.4 108.429 25.64C108.609 25.82 108.729 26.09 108.729 26.45C108.729 26.75 108.609 27.02 108.429 27.26C108.189 27.44 107.919 27.56 107.559 27.56H92.0787C91.1187 27.56 90.4287 27.32 90.0087 26.87C89.5587 26.39 89.3487 25.76 89.3487 24.92V23.72C89.3487 22.88 89.5587 22.25 90.0087 21.77C90.4287 21.32 91.1187 21.08 92.0787 21.08H104.559C104.769 21.08 104.949 21.05 105.129 20.96C105.279 20.9 105.369 20.69 105.369 20.36V19.94C105.369 19.64 105.279 19.43 105.129 19.34C104.949 19.28 104.769 19.22 104.559 19.22H90.5187ZM89.4987 10.52C89.1087 10.52 88.8087 10.43 88.6287 10.19C88.3887 10.01 88.2987 9.74 88.2987 9.38C88.2987 9.05 88.3887 8.78 88.6287 8.54C88.8087 8.33 89.1087 8.21 89.4987 8.21H92.9487L92.5587 5.33C92.4987 4.91 92.5287 4.52 92.7087 4.16C92.8587 3.86 93.1887 3.65 93.6687 3.59C94.0887 3.53 94.4487 3.62 94.7487 3.8C95.0187 4.04 95.1987 4.43 95.2887 5L95.7087 8.21H101.739L102.189 5C102.249 4.43 102.429 4.04 102.729 3.8C102.999 3.62 103.359 3.53 103.809 3.59C104.289 3.65 104.589 3.86 104.769 4.16C104.919 4.52 104.979 4.91 104.919 5.33L104.529 8.21H107.979C108.339 8.21 108.639 8.33 108.879 8.54C109.059 8.78 109.179 9.05 109.179 9.38C109.179 9.74 109.059 10.01 108.879 10.19C108.639 10.43 108.339 10.52 107.979 10.52H89.4987ZM87.0687 14.93C86.6787 14.93 86.3787 14.84 86.1987 14.6C85.9587 14.42 85.8687 14.15 85.8687 13.79C85.8687 13.46 85.9587 13.19 86.1987 12.95C86.3787 12.74 86.6787 12.62 87.0687 12.62H110.259C110.619 12.62 110.919 12.74 111.159 12.95C111.339 13.19 111.459 13.46 111.459 13.79C111.459 14.15 111.339 14.42 111.159 14.6C110.919 14.84 110.619 14.93 110.259 14.93H87.0687ZM89.7687 2.84C89.3787 2.84 89.0787 2.75 88.8987 2.51C88.6587 2.33 88.5687 2.06 88.5687 1.7C88.5687 1.37 88.6587 1.1 88.8987 0.859999C89.0787 0.649998 89.3787 0.53 89.7687 0.53H107.679C108.039 0.53 108.339 0.649998 108.579 0.859999C108.759 1.1 108.879 1.37 108.879 1.7C108.879 2.06 108.759 2.33 108.579 2.51C108.339 2.75 108.039 2.84 107.679 2.84H89.7687Z" fill="white"/>
</svg>
